<svg width="21" height="22" viewBox="0 0 21 22" fill="none" xmlns="http://www.w3.org/2000/svg">
<path fill-rule="evenodd" clip-rule="evenodd" d="M10.5 0.5C4.70085 0.5 0 5.20085 0 11C0 12.9845 0.55125 14.843 1.5099 16.4264L0.5733 19.61C0.519524 19.7928 0.515985 19.9867 0.563057 20.1713C0.610128 20.3559 0.70607 20.5245 0.840797 20.6592C0.975525 20.7939 1.14406 20.8899 1.32869 20.9369C1.51331 20.984 1.70721 20.9805 1.89 20.9267L5.0736 19.9901C6.71021 20.9803 8.58713 21.5026 10.5 21.5C16.2991 21.5 21 16.7991 21 11C21 5.20085 16.2991 0.5 10.5 0.5ZM8.1249 13.3761C10.249 15.4992 12.2766 15.7796 12.9927 15.8058C14.0815 15.8457 15.142 15.0141 15.5547 14.0492C15.6068 13.9292 15.6257 13.7973 15.6095 13.6675C15.5932 13.5376 15.5424 13.4145 15.4623 13.311C14.8869 12.576 14.1088 12.0479 13.3486 11.5229C13.1899 11.4131 12.9949 11.3691 12.8044 11.4001C12.6139 11.431 12.4428 11.5345 12.327 11.6888L11.697 12.6495C11.6639 12.7012 11.6123 12.7382 11.5527 12.7531C11.4932 12.7679 11.4302 12.7594 11.3767 12.7293C10.9494 12.4847 10.3267 12.0689 9.87945 11.6216C9.43215 11.1743 9.04155 10.58 8.8221 10.1799C8.79489 10.1291 8.78703 10.0702 8.79996 10.014C8.81289 9.95779 8.84575 9.90821 8.89245 9.8744L9.86265 9.1541C10.0011 9.03371 10.0905 8.8666 10.1137 8.6846C10.1369 8.5026 10.0924 8.31841 9.98865 8.1671C9.51825 7.4783 8.97015 6.6026 8.1753 6.02195C8.07272 5.94761 7.95256 5.90126 7.82663 5.88745C7.7007 5.87364 7.57335 5.89286 7.4571 5.9432C6.4911 6.3569 5.6553 7.4174 5.6952 8.50835C5.72145 9.22445 6.0018 11.252 8.1249 13.3761Z" fill="#0284C7"/>
<circle cx="10.5" cy="11" r="6.59302" fill="#0284C7"/>
</svg>
