<svg width="538" height="439" viewBox="0 0 538 439" fill="none" xmlns="http://www.w3.org/2000/svg">
<rect width="146.393" height="212.697" transform="matrix(-0.70753 -0.706683 0.70753 -0.706683 103.76 254.124)" fill="white"/>
<path d="M186.889 168.988L264.402 254.462L232.05 375.203L122.184 410.469L44.6701 324.995L77.0225 204.254L186.889 168.988Z" fill="white"/>
<path d="M494.731 19.4908L533.868 338.394L238.121 212.836L494.731 19.4908Z" fill="white"/>
<path fill-rule="evenodd" clip-rule="evenodd" d="M446.809 239.206C449.655 237.323 455.583 245.911 453.007 248.916C450.906 252.008 444.588 241.309 446.809 239.206ZM436.727 235.792C438.406 236.672 439.495 237.431 438.152 239.45C429.573 241.22 432.957 230.271 436.727 235.792ZM428.355 217.991C431.905 217.477 436.493 221.189 433.458 224.013C431.92 223.801 430.528 223.277 428.672 223.968C422.789 225.207 421.416 217.939 428.355 217.991ZM424.93 233.262C427.247 236.597 427.022 241.674 426.664 246.187C422.317 245.217 423.122 236.014 424.93 233.262ZM409.64 221.033C406.596 220.747 403.975 216.508 406.936 213.915C410.157 212.258 416.174 215.839 416.169 219.555C415.959 223.254 412.806 221.883 409.64 221.033ZM398.092 191.245C400.29 191.971 404.331 200.497 402.009 202.368C398.908 203.946 395.224 193.112 398.092 191.245ZM382.635 200.55C384.838 194.203 392.103 205.425 390.366 208.979C387.499 211.455 382.363 203.702 382.635 200.55ZM384.867 179.165C388.338 183.777 382.533 186.64 378.813 188.113C370.215 190.182 381.643 176.243 384.867 179.165ZM367.249 176.634C365.143 172.156 370.61 164.011 370.502 171.925C369.384 173.7 370.001 183.925 367.249 176.634ZM359.136 166.125C358.961 162.015 362.885 160.094 362.435 166.265C361.696 169.585 359.624 170.934 359.136 166.125ZM359.915 148.509C360.42 150.152 360.469 151.717 358.585 152.305C343.159 159.434 356.797 142.017 359.915 148.509ZM352.882 134.698C355.829 136.374 357.78 143.377 352.447 140.07C348.754 139.077 345.677 138.557 341.537 137.699C333.519 131.746 349.271 130.656 352.882 134.698ZM335.198 207.295C331.699 200.587 339.816 202.032 343.541 203.486C349.33 207.958 338.248 209.199 335.198 207.295ZM335.348 147.222C333.131 146.806 330.989 145.308 328.112 145.627C323.523 135.399 339.084 140.282 335.348 147.222ZM329.944 153.446C334.088 150.551 331.714 163.87 330.054 165.745C324.066 172.423 328.547 155.665 329.944 153.446ZM366.185 233.848C364.913 240.883 360.438 246.584 362.22 235.17C362.465 230.98 367.592 226.723 366.185 233.848ZM313.197 135.264C314.84 129.437 317.509 124.904 319.726 119.012C322.227 121.358 322.973 125.52 321.005 128.89C319.768 130.899 313.769 143.434 313.197 135.264ZM313.985 154.351C313.318 157.113 315.993 160.09 314.871 162.219C307.263 163.066 310.66 140.886 313.985 154.351ZM297.259 110.016C300.61 110.019 310.398 108.878 307.944 114.16C304.234 114.721 290.532 116.565 297.259 110.016ZM298.932 122.42C301.191 123.458 304.572 127.273 302.49 129.706C299.006 130.641 295.639 124.57 298.932 122.42ZM299.372 166.874C299.034 168.61 299.819 176.392 296.422 175.306C293.734 169.315 296.31 155.961 302.032 167.111C301.199 167.037 300.395 166.965 299.372 166.874ZM297.401 149.661C297.995 151.066 295.739 154.359 294.383 152.192C293.22 150.6 295.88 145.488 297.401 149.661ZM285.095 126.397C288.388 131.181 294.044 133.628 298.388 138.216C302.718 146.477 290.424 139.861 288.157 136.902C286.087 135.135 280.389 127.764 285.095 126.397ZM275.54 164.645C278.706 161.545 285.763 155.402 282.422 164.415C280.911 167.077 274.173 170.92 275.54 164.645ZM281.65 151.123C277.882 148.748 275.629 152.641 272.033 153.067C268.21 146.634 283.756 142.376 281.65 151.123ZM262.358 130.982C265.14 132.662 271.748 137.646 269.227 140.817C265.844 139.727 259.443 134.254 262.358 130.982ZM244.004 193.724C244.265 191.449 247.812 190.605 246.63 194.347C247.689 195.737 250.018 197.469 249.416 200.147C247.172 204.262 242.027 197.003 244.004 193.724ZM242.787 175.595C248.519 178.079 243.808 181.149 239.551 181.298C236.868 178.255 238.828 174.743 242.787 175.595ZM243.432 116.809C237.955 110.747 255.672 112.314 253.893 117.784C250.783 116.648 247.071 117.925 243.432 116.809ZM440.082 215.165C431.223 206.01 420.159 200.51 411.645 191.036C382.007 156.581 391.809 169.024 378.565 167.85C375.656 165.216 378.993 162.447 382.632 163.259C367.777 138.297 351.712 129.24 336.54 113.386C334.774 110.744 332.061 118.045 329.184 113.386C327.201 110.871 332.3 109.657 330.438 107.702C322.396 98.7279 325.543 102.272 318.095 107.566C315.9 104.772 317.685 102.405 320.256 100.228C315.089 100.696 316.483 97.12 313.286 96.3008C301.608 98.2559 291.223 103.659 279.576 104.158C275.405 105.621 274.863 114.693 273.141 118.574C269.462 120.392 270.463 107.951 272.033 106C271.197 105.993 268.207 103.233 264.55 103.8C223.85 102.283 216.919 97.6917 232.446 122.42C234.091 127.375 240.653 123.809 243.207 127.624C243.962 129.66 242.111 129.828 240.109 129.643C240.382 129.99 240.653 130.339 240.926 130.686C235.897 135.213 245.525 139.618 247.658 144.073C250.054 147.382 250.817 154.258 255.766 150.914C256.532 153.616 260.24 151.131 262.724 151.617C265.427 153.777 261.725 156.439 259.22 156.795C261.372 158.866 258.217 160.3 258.728 163.077C261.942 167.888 267.058 187.735 256.711 180.22C253.232 176.264 257.567 174.564 261.627 175.527C261.924 173.636 261.114 170.946 260.264 168.762C257.678 170.855 253.504 171.383 255.766 165.745C251.008 166.873 245.409 168.022 239.968 168.05C243.24 175.424 235.346 172.486 233.239 168.145C231.542 167.718 227.755 167.421 225.351 167.307C227.016 173.509 231.337 181.429 233.239 188.381C235.442 186.267 239.812 189.697 237.789 191.706C235.616 192.716 234.1 193.317 233.239 193.511C235.488 199.631 235.537 236.346 237.789 226.627C238.325 222.313 243.538 217.871 241.03 215.323C235.479 210.772 242.92 207.849 244.782 213.022C249.13 207.914 255.875 204.491 258.728 197.723C261.513 199.324 262.924 196.918 264.44 193.511C265.612 195.969 270.03 195.873 271.32 192.943C272.371 190.578 270.53 189.435 273.729 187.885C276.9 186.36 275.485 182.753 277.608 179.471C279.408 178.14 280.444 182.711 279.473 184.482C280.788 185.013 282.576 182.012 283.924 183.519C291.681 185.893 300.633 183.006 308.603 181.966C311.705 181.298 318.972 194.304 321.609 197.723C329.163 187.261 330.891 195.11 324.718 200.55C329.858 206.568 336.441 215.141 341.537 222C340.859 217.9 347.225 211.56 347.79 216.105C343.414 222.487 350.506 231.956 353.471 236.934C355.295 239.721 356.835 243.007 358.01 246.187C363.168 244.476 370.067 241.351 375.184 237.865C372.265 235.931 374.827 233.253 378.34 234.622C376.729 233.069 378.832 231.238 378.093 228.602C376.271 224.461 372.644 222.929 368.741 221.714C362.069 229.47 351.847 217.244 367.166 219.5C364.223 215.515 359.481 208.37 354.78 206.63C350.062 207.838 344.433 203.5 351.055 201.271C346.374 196.368 349.969 194.991 347.631 191.841C345.816 189.336 341.811 187.167 340.67 183.628C340.626 180.208 337.144 175.978 342.301 175.217C340.423 175.589 341.657 160.808 344.433 166.451C346.043 168.497 342.709 176.439 346.685 173.949C347.685 179.482 349.493 178.79 352.882 180.22C354.144 181.715 355.435 183.617 357.039 185.514C360.298 179.953 368.821 180.868 365.374 187.755C364.37 186.727 363.409 187.34 361.755 188.381C372.83 199.582 379.751 211.239 388.976 217.851C398.202 224.462 405.274 232.448 415.124 238.45C418.783 248.957 416.853 251.98 428.248 254.162C430.44 257.732 430.788 261.082 434.448 259.299C434.887 260.065 435.852 260.86 436.727 262.159C436.922 259.278 443.366 249.127 444.303 256.406C442.214 258.953 440.221 263.978 438.152 266.749C439.676 270.01 442.341 274.102 442.809 278.417C447.58 274.389 453.095 268.442 457.974 265.097C457.689 263.2 457.995 261.409 458.954 259.299C461.333 267.731 461.571 260.268 465.994 261.561C467.248 262.539 469.072 261.589 470.713 261.353C471.134 259.78 472.639 257.544 470.723 255.471C463.599 236.878 449.5 227.861 440.082 215.165Z" fill="#38BDF8"/>
<path fill-rule="evenodd" clip-rule="evenodd" d="M385.42 270.04C386.57 269.023 384.751 265.765 384.749 263.355C385.214 254.782 391.822 273.537 397.681 272.189C395.316 269.635 394.299 263.267 390.833 265.255C394.21 262.985 390.032 256.67 393.999 253.774C391.852 252.823 387.58 246.428 385.736 249.913C384.126 247.594 382.611 245.413 380.99 243.079C379.002 245.421 372.423 244.94 372.356 248.729C372.712 250.649 375.403 252.793 372.768 254.298C374.022 258.935 374.894 265.065 378.456 269.283C378.033 255.399 381.518 263.073 385.42 270.04ZM459.022 271.026C462.098 273.878 472.273 283.245 469.565 284.992C465.822 286.161 467.232 289.662 466.784 293.477C471.801 286.98 471.342 298.356 472.766 301.655C474.32 306.428 477.587 309.264 481.102 313.236C473.464 288.757 480.198 303.66 490.368 311.179C489.626 307.485 486.925 303.878 483.996 300.86C479.235 289.603 494.228 309.218 497.882 307.988C496.483 305.729 496.629 301.668 493.991 299.917C487.775 296.5 484.065 290.031 480.824 283.225C475.104 279.633 475.268 270.711 470.73 264.365C467.244 264.927 462.761 268.813 459.022 271.026ZM210.418 308.194C211.167 303.526 212.277 298.084 213.22 293.067C211.543 282.981 210.661 273.64 209.894 263.092C206.923 245.257 210.345 238.612 192.638 237.511C190.612 237.393 191.283 242.78 190.674 245.089C189.147 246.975 189.884 248.692 188.899 251.018C187.762 252.918 190.57 255.608 191.29 258.169C199.715 274.187 198.715 292.222 206.361 308.73C206.528 306.773 208.565 306.565 210.418 308.194ZM334.595 112.914C331.134 109.21 327.148 104.716 322.998 100.888C310.55 98.4049 298.079 103.376 285.332 106.623C266.4 110.702 240.694 109.187 226.374 104.174C226.16 114.496 234.833 122.611 240.558 131.096C254.515 149.288 271.806 170.222 266.085 192.912C301.975 165.317 325.149 186.974 351.041 171.164C352.37 172.871 351.48 174.404 350.978 176.952C355.91 183.216 362.245 189.64 368.72 195.204C399.391 225.768 436.394 246.732 443.263 276.06C452.33 269.295 461.618 259.189 470.331 261.32C455.25 230.55 423.735 211.939 400.987 186.821C394.653 179.69 389.262 173.279 383.426 165.34C367.659 138.298 350.081 129.251 334.595 112.914ZM411.312 114.956C402.901 113.767 401.341 113.778 395.236 108.125C393.058 115.321 384.131 106.725 388.764 120.233C384.351 124.452 383.171 116.629 384.764 113.055C371.543 113.147 382.321 126.126 384.353 132.771C381.224 136.859 377.104 129.902 376.381 126.539C371.266 128.113 365.837 128.935 360.178 130.289C401.796 167.463 373.712 160.641 397.024 148.938C398.357 147.904 397.138 145.438 399.457 143.984C400.375 143.431 401.3 143.831 401.799 145.314C404.368 159.03 414.809 148.126 405.871 142.078C405.915 139.838 410.001 141.088 409.617 138.37C409.558 127.971 417.618 119.977 424.543 112.716C423.523 112.509 422.707 112.344 421.867 112.173C422.349 112.632 422.742 113.007 423.229 113.472C421.165 114.922 418.896 114.268 417.12 115.221C416.619 119.15 415.19 120.911 412.478 120.646C412.865 118.82 413.247 117.023 413.639 115.172C413.46 115.131 412.478 114.917 411.312 114.956ZM239.387 168.146C235.357 168.623 231.291 168.011 226.685 168.092C238.082 193.228 234.991 207.072 236.938 226.627C240.789 211.731 253.474 207.357 258.51 194.475C262.058 186.514 262.701 178.539 260.032 169.794C259.514 168.046 258.332 165.513 255.92 166.501C250.649 168.43 245.231 167.934 239.387 168.146ZM236.977 162.057C243.017 162.515 249.501 162.841 256.141 161.708C252.529 155.299 248.975 149.312 244.042 143.197C214.781 106.346 232.785 111.399 215.521 111.731C225.495 126.678 228.512 144.248 227.756 162.057H236.977ZM347.421 226.082C364.509 246.071 351.551 248.308 370.845 240.162C372.908 237.757 380.273 237.602 377.477 233.81C370.037 221.653 360.469 212.066 350.57 201.319C336.678 183.056 342.827 183.126 332.286 185.135C326.361 186.299 321.109 184.964 314.765 186.272C324.943 199.579 336.839 212.374 347.421 226.082ZM372.553 123.985C373.04 123.883 373.528 123.781 373.919 123.7C369.62 109.093 382.649 109.263 391.69 107.56C392.5 105.568 392.959 103.76 395.992 103.687C403.928 108.381 401.849 109.795 412.335 110.86C414.97 111.277 416.654 112.04 419.801 112.01C420.844 111.197 421.737 110.014 423.517 109.806C434.863 108.782 445.171 116.981 448.61 127.763C451.271 134.27 448.608 141.171 446.203 147.623C449.882 158.059 480.686 157.822 468.968 174.442C484.893 183.053 500.538 193.783 512.732 208.078C518.718 215.576 526.775 232.724 511.742 233.563C509.668 233.464 506.155 234.565 506.114 237.782C506.67 243.192 510.87 246.084 512.853 251.441C532.954 293.027 488.53 268.37 472.545 257.009C473.127 258.741 474.067 261.043 474.647 263.068C474.114 264.037 473.749 263.976 475.236 265.487C480.533 271.546 481.34 278.614 486.758 284.826C489.53 291.435 508.542 299.615 500.055 305.526C503.279 314.269 499.05 313.846 492.98 309.254C497.285 319.496 490.24 316.001 484.878 311.322C492.962 339.684 468.626 311.982 467.986 301.374C460.493 308.158 459.914 297.77 461.06 292.046C460.843 290.277 463.149 288.52 461.015 287.391C463.569 284.263 461.587 278.885 458.679 275.53C455.665 268.165 447.3 281.364 441.552 279.988C436.476 273.571 431.903 264.585 426.668 256.735C423.225 269.179 412.904 274.189 405.474 260.908C401.309 250.009 402.53 238.491 394.37 229.169C384.384 215 371.549 204.229 359.073 192.008C345.193 177.882 353.293 176.379 341.532 182.943C354.265 200.554 374.64 213.358 383.099 234.331C383.443 236.968 383.394 239.039 385.625 241.197C387.878 245.935 391.791 247.664 395.796 250.73C399.288 253.847 400.958 259.718 394.214 258.949C396.436 264.959 402.23 269.498 404.303 275.811C406.988 285.334 391.522 274.286 389.412 271.631C390.129 278.737 387.191 278.782 383.354 272.685C384.256 284.528 374.879 270.663 373.723 266.618C371.281 261.164 372.062 255.695 368.755 250.46C367.266 247.821 360.303 252.22 357.682 252.048C354.455 251.55 346.599 247.218 353.941 245.823C342.289 224.718 322.665 208.72 311.809 186.747C296.684 183.001 278.475 193.059 265.645 202.501C232.302 230.819 243.47 240.165 234.496 232.906C226.048 219.768 232.1 203.468 228.556 188.582C227.562 183.532 225.624 176.243 222.706 172.401C221.504 172.505 220.702 172.852 220.017 171.253C219.429 168.325 218.138 168.732 215.395 169.973C210.42 171.852 206.774 173.397 201.225 173.784C174.99 173.556 149.697 170.793 123.26 168.075C146.317 184.081 156.116 200.228 171.676 213.711C188.564 229.822 192.558 224.845 191.341 233.499C195.972 235.793 206.375 232.284 209.121 239.885C216.678 260.182 214.889 282.391 218.439 303.936C213.83 303.206 218.133 317.895 210.768 313.32C206.634 326.106 196.933 297.406 196.642 294.175C194.033 281.479 192.455 268.868 187.714 256.43C186.343 257.795 185.634 262.495 182.23 260.796C172.491 256.652 163.244 251.271 153.762 245.661C129.604 233.215 107.866 217.342 89.0584 197.664C78.4845 186.819 64.0296 175.831 65.8544 158.645C67.8659 140.981 116.643 126.907 126.333 122.664C141.048 115.126 212.345 94.3955 213.839 107.682C217.287 108.218 217.388 104.441 219.797 102.385C221.274 100.911 222.673 102.416 223.756 99.9181C238.897 101.773 254.574 102.048 270.306 101.441C287.012 101.496 300.857 91.2453 317.922 94.356C332.944 101.344 342.627 119.247 357.853 127.665C362.474 125.933 367.027 123.974 372.553 123.985Z" fill="black"/>
<path fill-rule="evenodd" clip-rule="evenodd" d="M78.1154 300.155C75.9193 314.41 72.9011 315.08 63.2087 323.594C53.6613 334.522 41.7549 343.713 33.8846 356.503C51.5996 340.108 77.0924 342.184 84.8193 330.862C88.5029 325.049 88.5103 318.578 89.054 311.48C91.9146 296.295 88.6164 302.826 78.1154 300.155ZM75.4518 299.469C73.777 297.527 73.4753 301.144 71.3285 299.623C69.8567 292.542 72.2492 284.719 72.4232 277.01C75.0904 251.169 79.8597 226.318 91.6436 202.769C131.17 238.167 127.205 221.744 115.579 249.094C110.426 256.592 108.127 264.623 105.044 273.557C101.703 282.926 97.1013 290.793 98.1825 301.478C97.7121 303.886 94.0323 300.497 94.1861 303.497C93.4633 312.607 93.8785 321.443 90.9827 330.507C88.2146 337.305 82.8734 342.029 75.2681 343.536C59.4729 349.013 44.5678 353.196 31.8386 365.64C14.5925 368.052 41.7191 334.538 46.3875 332.065C62.6554 313.577 73.1803 310.763 75.4518 299.469Z" fill="black"/>
<path fill-rule="evenodd" clip-rule="evenodd" d="M236.501 100.529C235.15 100.411 233.798 100.295 232.446 100.177C233.798 100.295 235.15 100.411 236.501 100.529Z" fill="black"/>
<path fill-rule="evenodd" clip-rule="evenodd" d="M196.461 173.78C197.308 173.791 198.155 173.802 198.995 173.814C198.146 173.802 197.303 173.791 196.461 173.78Z" fill="black"/>
<path fill-rule="evenodd" clip-rule="evenodd" d="M200.516 103.136C199.508 103.714 198.495 103.896 197.475 103.186C198.488 103.168 199.501 103.152 200.516 103.136Z" fill="black"/>
<path fill-rule="evenodd" clip-rule="evenodd" d="M209.132 103.534C208.118 103.439 207.105 103.345 206.091 103.25C207.104 103.345 208.118 103.439 209.132 103.534Z" fill="black"/>
<path fill-rule="evenodd" clip-rule="evenodd" d="M410.346 110.141C409.332 110.031 408.318 109.921 407.305 109.812C408.319 109.921 409.332 110.032 410.346 110.141Z" fill="black"/>
<path fill-rule="evenodd" clip-rule="evenodd" d="M372.333 123.643C371.488 123.649 370.643 123.656 369.799 123.662L372.333 123.643Z" fill="black"/>
<path fill-rule="evenodd" clip-rule="evenodd" d="M193.42 104.088C192.575 104.096 191.73 104.104 190.886 104.112C191.727 103.499 192.573 103.594 193.42 104.088Z" fill="black"/>
<path fill-rule="evenodd" clip-rule="evenodd" d="M216.317 279.658C216.257 278.813 216.197 277.968 216.138 277.125C216.198 277.971 216.257 278.814 216.317 279.658Z" fill="black"/>
<path fill-rule="evenodd" clip-rule="evenodd" d="M202.543 173.307C203.052 173.295 203.56 173.284 204.063 173.274C203.552 173.285 203.048 173.296 202.543 173.307Z" fill="black"/>
<path fill-rule="evenodd" clip-rule="evenodd" d="M499.042 312.579C499.551 312.579 500.06 312.58 500.562 312.582C500.052 312.583 499.547 312.581 499.042 312.579Z" fill="black"/>
<path fill-rule="evenodd" clip-rule="evenodd" d="M171.626 107.787C170.95 107.896 170.274 108.005 169.599 108.114C170.275 108.005 170.951 107.895 171.626 107.787Z" fill="black"/>
<path fill-rule="evenodd" clip-rule="evenodd" d="M160.982 171.787C161.491 171.775 162.001 171.765 162.503 171.755C161.991 171.765 161.487 171.776 160.982 171.787Z" fill="black"/>
<path fill-rule="evenodd" clip-rule="evenodd" d="M310.166 93.5565C309.442 93.5626 308.719 93.5679 307.995 93.5732C308.719 93.5679 309.442 93.5618 310.166 93.5565Z" fill="black"/>
<path fill-rule="evenodd" clip-rule="evenodd" d="M237.008 161.462C237.853 161.581 238.698 161.7 239.542 161.819C238.697 161.7 237.852 161.581 237.008 161.462Z" fill="black"/>
<path fill-rule="evenodd" clip-rule="evenodd" d="M412.88 114.549C412.371 114.539 411.862 114.529 411.359 114.521C411.871 114.532 412.376 114.54 412.88 114.549Z" fill="black"/>
<path fill-rule="evenodd" clip-rule="evenodd" d="M408.318 115.55C407.046 118.086 403.495 117.467 406.407 121.184C409.35 123.645 405.416 125.059 403.324 123.516C399.328 119.481 403.537 115.448 408.318 115.55Z" fill="black"/>
<path d="M537.318 414.375C537.318 427.713 420.169 438.525 275.659 438.525C131.149 438.525 14 427.713 14 414.375C14 401.037 131.149 390.224 275.659 390.224C420.169 390.224 537.318 401.037 537.318 414.375Z" fill="white"/>
</svg>
